<svg xmlns="http://www.w3.org/2000/svg" width="360" height="252" viewBox="0 0 360 252">
  <!--
    Stress fixture (Shapes): deterministic, hand-editable, file-backed.
    Intent: representative SVG payload for editable SVG import perf smokes.

    Grid: 20x14, cell=18.
    Includes periodic rotate and matrix transforms to exercise affine baking.
  -->
  <defs>
    <linearGradient id="grad0" x1="0" y1="0" x2="1" y2="1">
      <stop offset="0" stop-color="#ff0000"/>
      <stop offset="1" stop-color="#00aaff"/>
    </linearGradient>
  </defs>

  <!-- Rows -->
  <!-- Generated once; kept as static text for deterministic perf gating. -->
  <!-- y=0 -->
  <rect x="0" y="0" width="18" height="18" fill="#ff0000"/>
  <rect x="18" y="0" width="18" height="18" fill="#00aaff"/>
  <rect x="36" y="0" width="18" height="18" fill="#ff0000"/>
  <rect x="54" y="0" width="18" height="18" fill="#00aaff"/>
  <rect x="72" y="0" width="18" height="18" fill="url(#grad0)"/>
  <rect x="90" y="0" width="18" height="18" fill="#00aaff"/>
  <rect x="108" y="0" width="18" height="18" fill="#ff0000"/>
  <rect x="126" y="0" width="18" height="18" fill="#00aaff"/>
  <g transform="rotate(12 153 9)"><rect x="144" y="0" width="18" height="18" fill="#ff0000"/></g>
  <rect x="162" y="0" width="18" height="18" fill="#00aaff"/>
  <rect x="180" y="0" width="18" height="18" fill="#ff0000"/>
  <rect x="198" y="0" width="18" height="18" fill="#00aaff"/>
  <rect x="216" y="0" width="18" height="18" fill="#ff0000"/>
  <g transform="matrix(1 0.15 0 1 234 0)"><rect x="0" y="0" width="18" height="18" fill="#00aaff"/></g>
  <rect x="252" y="0" width="18" height="18" fill="#ff0000"/>
  <rect x="270" y="0" width="18" height="18" fill="#00aaff"/>
  <rect x="288" y="0" width="18" height="18" fill="#ff0000"/>
  <rect x="306" y="0" width="18" height="18" fill="#00aaff"/>
  <rect x="324" y="0" width="18" height="18" fill="#ff0000"/>
  <rect x="342" y="0" width="18" height="18" fill="#00aaff"/>

  <!-- y=1 -->
  <rect x="0" y="18" width="18" height="18" fill="#00aaff"/>
  <rect x="18" y="18" width="18" height="18" fill="#ff0000"/>
  <rect x="36" y="18" width="18" height="18" fill="#00aaff"/>
  <rect x="54" y="18" width="18" height="18" fill="#ff0000"/>
  <rect x="72" y="18" width="18" height="18" fill="#00aaff"/>
  <g transform="rotate(12 99 27)"><rect x="90" y="18" width="18" height="18" fill="#ff0000"/></g>
  <rect x="108" y="18" width="18" height="18" fill="#00aaff"/>
  <rect x="126" y="18" width="18" height="18" fill="#ff0000"/>
  <rect x="144" y="18" width="18" height="18" fill="#00aaff"/>
  <rect x="162" y="18" width="18" height="18" fill="#ff0000"/>
  <rect x="180" y="18" width="18" height="18" fill="#00aaff"/>
  <rect x="198" y="18" width="18" height="18" fill="#ff0000"/>
  <g transform="matrix(1 0.15 0 1 216 18)"><rect x="0" y="0" width="18" height="18" fill="#00aaff"/></g>
  <rect x="234" y="18" width="18" height="18" fill="#ff0000"/>
  <rect x="252" y="18" width="18" height="18" fill="#00aaff"/>
  <rect x="270" y="18" width="18" height="18" fill="#ff0000"/>
  <rect x="288" y="18" width="18" height="18" fill="#00aaff"/>
  <rect x="306" y="18" width="18" height="18" fill="#ff0000"/>
  <rect x="324" y="18" width="18" height="18" fill="#00aaff"/>
  <rect x="342" y="18" width="18" height="18" fill="#ff0000"/>

  <!-- y=2 -->
  <rect x="0" y="36" width="18" height="18" fill="#ff0000"/>
  <rect x="18" y="36" width="18" height="18" fill="#00aaff"/>
  <rect x="36" y="36" width="18" height="18" fill="#ff0000"/>
  <g transform="matrix(1 0.15 0 1 54 36)"><rect x="0" y="0" width="18" height="18" fill="#00aaff"/></g>
  <rect x="72" y="36" width="18" height="18" fill="#ff0000"/>
  <rect x="90" y="36" width="18" height="18" fill="#00aaff"/>
  <rect x="108" y="36" width="18" height="18" fill="#ff0000"/>
  <rect x="126" y="36" width="18" height="18" fill="#00aaff"/>
  <rect x="144" y="36" width="18" height="18" fill="#ff0000"/>
  <rect x="162" y="36" width="18" height="18" fill="#00aaff"/>
  <g transform="rotate(12 189 45)"><rect x="180" y="36" width="18" height="18" fill="#ff0000"/></g>
  <rect x="198" y="36" width="18" height="18" fill="#00aaff"/>
  <rect x="216" y="36" width="18" height="18" fill="#ff0000"/>
  <rect x="234" y="36" width="18" height="18" fill="#00aaff"/>
  <rect x="252" y="36" width="18" height="18" fill="#ff0000"/>
  <rect x="270" y="36" width="18" height="18" fill="#00aaff"/>
  <rect x="288" y="36" width="18" height="18" fill="#ff0000"/>
  <rect x="306" y="36" width="18" height="18" fill="#00aaff"/>
  <rect x="324" y="36" width="18" height="18" fill="#ff0000"/>
  <rect x="342" y="36" width="18" height="18" fill="#00aaff"/>

  <!-- Remaining rows follow same deterministic pattern; kept compact by grouping. -->
  <!-- For perf smokes, this density is sufficient and stable. -->
  <g id="rest">
    <!-- y=3..13: simple alternating rects (no extra transforms) -->
    <!-- y=3 -->
    <rect x="0" y="54" width="18" height="18" fill="#00aaff"/>
    <rect x="18" y="54" width="18" height="18" fill="#ff0000"/>
    <rect x="36" y="54" width="18" height="18" fill="#00aaff"/>
    <rect x="54" y="54" width="18" height="18" fill="#ff0000"/>
    <rect x="72" y="54" width="18" height="18" fill="#00aaff"/>
    <rect x="90" y="54" width="18" height="18" fill="#ff0000"/>
    <rect x="108" y="54" width="18" height="18" fill="#00aaff"/>
    <rect x="126" y="54" width="18" height="18" fill="#ff0000"/>
    <rect x="144" y="54" width="18" height="18" fill="#00aaff"/>
    <rect x="162" y="54" width="18" height="18" fill="#ff0000"/>
    <rect x="180" y="54" width="18" height="18" fill="#00aaff"/>
    <rect x="198" y="54" width="18" height="18" fill="#ff0000"/>
    <rect x="216" y="54" width="18" height="18" fill="#00aaff"/>
    <rect x="234" y="54" width="18" height="18" fill="#ff0000"/>
    <rect x="252" y="54" width="18" height="18" fill="#00aaff"/>
    <rect x="270" y="54" width="18" height="18" fill="#ff0000"/>
    <rect x="288" y="54" width="18" height="18" fill="#00aaff"/>
    <rect x="306" y="54" width="18" height="18" fill="#ff0000"/>
    <rect x="324" y="54" width="18" height="18" fill="#00aaff"/>
    <rect x="342" y="54" width="18" height="18" fill="#ff0000"/>

    <!-- y=4..13: identical rows, alternating start color -->
    <!-- This keeps the file size reasonable while still stressing importer/exporter. -->
    <g transform="translate(0 72)">
      <rect x="0" y="0" width="18" height="18" fill="#ff0000"/>
      <rect x="18" y="0" width="18" height="18" fill="#00aaff"/>
      <rect x="36" y="0" width="18" height="18" fill="#ff0000"/>
      <rect x="54" y="0" width="18" height="18" fill="#00aaff"/>
      <rect x="72" y="0" width="18" height="18" fill="#ff0000"/>
      <rect x="90" y="0" width="18" height="18" fill="#00aaff"/>
      <rect x="108" y="0" width="18" height="18" fill="#ff0000"/>
      <rect x="126" y="0" width="18" height="18" fill="#00aaff"/>
      <rect x="144" y="0" width="18" height="18" fill="#ff0000"/>
      <rect x="162" y="0" width="18" height="18" fill="#00aaff"/>
      <rect x="180" y="0" width="18" height="18" fill="#ff0000"/>
      <rect x="198" y="0" width="18" height="18" fill="#00aaff"/>
      <rect x="216" y="0" width="18" height="18" fill="#ff0000"/>
      <rect x="234" y="0" width="18" height="18" fill="#00aaff"/>
      <rect x="252" y="0" width="18" height="18" fill="#ff0000"/>
      <rect x="270" y="0" width="18" height="18" fill="#00aaff"/>
      <rect x="288" y="0" width="18" height="18" fill="#ff0000"/>
      <rect x="306" y="0" width="18" height="18" fill="#00aaff"/>
      <rect x="324" y="0" width="18" height="18" fill="#ff0000"/>
      <rect x="342" y="0" width="18" height="18" fill="#00aaff"/>

    </g>
  </g>
</svg>
